HIERARCHY
ROOT Hips
{
  OFFSET 5.84602e-005 68.8428 3.50346
  CHANNELS 6 Xposition Yposition Zposition Zrotation Xrotation Yrotation
  JOINT Spine
  {
    OFFSET 0 8.597 -4.6522
    CHANNELS 3 Zrotation Xrotation Yrotation
    JOINT Spine1
    {
      OFFSET 0 7.8454 0.4098
      CHANNELS 3 Zrotation Xrotation Yrotation
      JOINT Spine2
      {
        OFFSET 0 9.7078 -2.1609
        CHANNELS 3 Zrotation Xrotation Yrotation
        JOINT Neck
        {
          OFFSET 0 21.8761 -0.4549
          CHANNELS 3 Zrotation Xrotation Yrotation
          JOINT Head
          {
            OFFSET 0 12.3537 3.3602
            CHANNELS 3 Zrotation Xrotation Yrotation
            End Site
            {
              OFFSET 0.0001 18.9506 0.5657
            }
          }
        }
        JOINT LeftShoulder
        {
          OFFSET 2.2086 21.1115 7.2329
          CHANNELS 3 Zrotation Xrotation Yrotation
          JOINT LeftArm
          {
            OFFSET 13.1193 3.0282 -4.8998
            CHANNELS 3 Zrotation Xrotation Yrotation
            JOINT LeftForeArm
            {
              OFFSET 27.4081 -0.0973053 -0.2375
              CHANNELS 3 Zrotation Xrotation Yrotation
              JOINT LeftHand
              {
                OFFSET 22.8641 0.0662994 -0.1369
                CHANNELS 3 Zrotation Xrotation Yrotation
                JOINT LeftHandIndex1
                {
                  OFFSET 8.8614 0.775009 2.4612
                  CHANNELS 3 Zrotation Xrotation Yrotation
                  JOINT LeftHandIndex2
                  {
                    OFFSET 3.3146 -0.808304 0.5841
                    CHANNELS 3 Zrotation Xrotation Yrotation
                    JOINT LeftHandIndex3
                    {
                      OFFSET 2.2628 -0.552002 0.3989
                      CHANNELS 3 Zrotation Xrotation Yrotation
                      End Site
                      {
                        OFFSET 1.6102 -0.4807 0.2612
                      }
                    }
                  }
                }
                JOINT LeftHandMiddle1
                {
                  OFFSET 8.9937 0.895004 0.2143
                  CHANNELS 3 Zrotation Xrotation Yrotation
                  JOINT LeftHandMiddle2
                  {
                    OFFSET 4.0984 0.0113983 -0.0242
                    CHANNELS 3 Zrotation Xrotation Yrotation
                    JOINT LeftHandMiddle3
                    {
                      OFFSET 2.2716 0.00689697 -0.0138001
                      CHANNELS 3 Zrotation Xrotation Yrotation
                      End Site
                      {
                        OFFSET 2.0404 -0.1441 0.0027
                      }
                    }
                  }
                }
                JOINT LeftHandRing1
                {
                  OFFSET 8.5234 0.597198 -2.0164
                  CHANNELS 3 Zrotation Xrotation Yrotation
                  JOINT LeftHandRing2
                  {
                    OFFSET 3.7188 -0.188293 -0.2328
                    CHANNELS 3 Zrotation Xrotation Yrotation
                    JOINT LeftHandRing3
                    {
                      OFFSET 2.1191 -0.106598 -0.1332
                      CHANNELS 3 Zrotation Xrotation Yrotation
                      End Site
                      {
                        OFFSET 1.8737 -0.2304 -0.0886
                      }
                    }
                  }
                }
                JOINT LeftHandPinky1
                {
                  OFFSET 7.9094 -0.601089 -3.4825
                  CHANNELS 3 Zrotation Xrotation Yrotation
                  JOINT LeftHandPinky2
                  {
                    OFFSET 2.2874 -0.477005 -0.6314
                    CHANNELS 3 Zrotation Xrotation Yrotation
                    JOINT LeftHandPinky3
                    {
                      OFFSET 1.6774 -0.349396 -0.4633
                      CHANNELS 3 Zrotation Xrotation Yrotation
                      End Site
                      {
                        OFFSET 1.4888 -0.4091 -0.3416
                      }
                    }
                  }
                }
                JOINT LeftHandThumb1
                {
                  OFFSET 1.833 -1.3875 1.3896
                  CHANNELS 3 Zrotation Xrotation Yrotation
                  JOINT LeftHandThumb2
                  {
                    OFFSET 3.4129 -1.121 2.5732
                    CHANNELS 3 Zrotation Xrotation Yrotation
                    JOINT LeftHandThumb3
                    {
                      OFFSET 2.2474 -0.804199 1.6192
                      CHANNELS 3 Zrotation Xrotation Yrotation
                      End Site
                      {
                        OFFSET 1.6527 -0.5689 1.1317
                      }
                    }
                  }
                }
              }
            }
          }
        }
        JOINT RightShoulder
        {
          OFFSET -2.2086 21.1115 7.2329
          CHANNELS 3 Zrotation Xrotation Yrotation
          JOINT RightArm
          {
            OFFSET -13.1216 3.0287 -4.9007
            CHANNELS 3 Zrotation Xrotation Yrotation
            JOINT RightForeArm
            {
              OFFSET -27.4081 -0.0973053 -0.2375
              CHANNELS 3 Zrotation Xrotation Yrotation
              JOINT RightHand
              {
                OFFSET -22.8641 0.0664063 -0.1369
                CHANNELS 3 Zrotation Xrotation Yrotation
                JOINT RightHandIndex1
                {
                  OFFSET -8.8614 0.774994 2.4612
                  CHANNELS 3 Zrotation Xrotation Yrotation
                  JOINT RightHandIndex2
                  {
                    OFFSET -3.3146 -0.808304 0.5841
                    CHANNELS 3 Zrotation Xrotation Yrotation
                    JOINT RightHandIndex3
                    {
                      OFFSET -2.2628 -0.552002 0.3989
                      CHANNELS 3 Zrotation Xrotation Yrotation
                      End Site
                      {
                        OFFSET -1.6102 -0.4807 0.2612
                      }
                    }
                  }
                }
                JOINT RightHandMiddle1
                {
                  OFFSET -8.9937 0.894989 0.2143
                  CHANNELS 3 Zrotation Xrotation Yrotation
                  JOINT RightHandMiddle2
                  {
                    OFFSET -4.0984 0.0113983 -0.0242
                    CHANNELS 3 Zrotation Xrotation Yrotation
                    JOINT RightHandMiddle3
                    {
                      OFFSET -2.2716 0.00691223 -0.0138001
                      CHANNELS 3 Zrotation Xrotation Yrotation
                      End Site
                      {
                        OFFSET -2.0404 -0.1441 0.0027
                      }
                    }
                  }
                }
                JOINT RightHandRing1
                {
                  OFFSET -8.5234 0.597198 -2.0164
                  CHANNELS 3 Zrotation Xrotation Yrotation
                  JOINT RightHandRing2
                  {
                    OFFSET -3.7188 -0.188309 -0.2328
                    CHANNELS 3 Zrotation Xrotation Yrotation
                    JOINT RightHandRing3
                    {
                      OFFSET -2.1191 -0.106598 -0.1332
                      CHANNELS 3 Zrotation Xrotation Yrotation
                      End Site
                      {
                        OFFSET -1.8737 -0.2304 -0.0886
                      }
                    }
                  }
                }
                JOINT RightHandPinky1
                {
                  OFFSET -7.9094 -0.601105 -3.4825
                  CHANNELS 3 Zrotation Xrotation Yrotation
                  JOINT RightHandPinky2
                  {
                    OFFSET -2.2874 -0.477005 -0.6314
                    CHANNELS 3 Zrotation Xrotation Yrotation
                    JOINT RightHandPinky3
                    {
                      OFFSET -1.6774 -0.349396 -0.4633
                      CHANNELS 3 Zrotation Xrotation Yrotation
                      End Site
                      {
                        OFFSET -1.4888 -0.4091 -0.3416
                      }
                    }
                  }
                }
                JOINT RightHandThumb1
                {
                  OFFSET -1.833 -1.38751 1.3896
                  CHANNELS 3 Zrotation Xrotation Yrotation
                  JOINT RightHandThumb2
                  {
                    OFFSET -3.41299 -1.12099 2.5732
                    CHANNELS 3 Zrotation Xrotation Yrotation
                    JOINT RightHandThumb3
                    {
                      OFFSET -2.24741 -0.804108 1.6192
                      CHANNELS 3 Zrotation Xrotation Yrotation
                      End Site
                      {
                        OFFSET -1.6527 -0.5689 1.1317
                      }
                    }
                  }
                }
              }
            }
          }
        }
      }
    }
  }
  JOINT RightUpLeg
  {
    OFFSET -9.1966 3.8861 -0.7581
    CHANNELS 3 Zrotation Xrotation Yrotation
    JOINT RightLeg
    {
      OFFSET -0.7359 -41.0265 0
      CHANNELS 3 Zrotation Xrotation Yrotation
      JOINT RightFoot
      {
        OFFSET 0 -40.2855 0
        CHANNELS 3 Zrotation Xrotation Yrotation
        JOINT RightToeBase
        {
          OFFSET 0 -5.6122 11.7359
          CHANNELS 3 Zrotation Xrotation Yrotation
          End Site
          {
            OFFSET 0 0 7.8731
          }
        }
      }
    }
  }
  JOINT LeftUpLeg
  {
    OFFSET 9.1965 3.8864 -0.7581
    CHANNELS 3 Zrotation Xrotation Yrotation
    JOINT LeftLeg
    {
      OFFSET 0.7359 -41.0268 0
      CHANNELS 3 Zrotation Xrotation Yrotation
      JOINT LeftFoot
      {
        OFFSET 0 -40.2855 0
        CHANNELS 3 Zrotation Xrotation Yrotation
        JOINT LeftToeBase
        {
          OFFSET 0 -5.6122 11.7359
          CHANNELS 3 Zrotation Xrotation Yrotation
          End Site
          {
            OFFSET 0 0 7.8731
          }
        }
      }
    }
  }
}
MOTION
Frames:	7
Frame Time:	0.0333333
5.84602e-005 68.8428 3.50346 0 0 -0 0 0 -0 0 0 -0 0 0 -0 0 0 -0 0 0 -0 0 0 -0 0 0 -0 0 0 -0 0 0 -0 0 0 -0 0 0 -0 0 0 -0 0 0 -0 -0.0146107 -8.87603e-005 -2.63497e-007 2.99804e-018 -2.42657e-020 -1.42182e-022 0 0 -0 -0.0187562 -0.001176 5.858e-005 5.06224e-018 3.88251e-019 1.21329e-020 0 0 -0 -0.012269 -0.00324817 0.000675346 -1.74678e-018 3.88251e-019 -0 0 0 -0 0 0 -0 0 0 -0 0 0 -0 0 0 -0 0 0 -0 0 0 -0 0 0 -0 0 0 -0 0 0 -0 0 0 -0 0.0149955 -9.10982e-005 2.64101e-007 -9.69331e-018 1.21329e-020 -4.7394e-023 0 0 -0 0.0189956 -0.00119102 -5.96516e-005 -5.41541e-019 0 2.42657e-020 0 0 -0 0.0122698 -0.00324857 -0.000673756 -2.00796e-019 0 -1.94126e-019 0 0 -0 0 0 -0 0 0 -0 3.39842 1.33031 -0.0637918 -5.65207e-008 0.834868 -0.000436188 -3.39935 -2.16518 -0.0642563 -8.89002e-024 -1.18485e-023 -1.48106e-024 -3.39844 1.35642 0.0640283 -3.18788e-007 0.782166 -0.000588827 3.39931 -2.13858 0.0634662 1.1399e-023 0 -0 
0.000658532 1.70317 -5.36166 0 75.5707 -0 -0.347688 4.01194 -0.0447344 -0.694792 8.02406 -0.0652336 -0.694792 8.02408 -0.0652331 0.175297 -25.6568 0.103673 0.0677108 -23.7568 0.0269599 -8.50283 -0.206586 5.69943e-006 -84.5221 -8.70084 -67.4136 50.2604 -32.4967 -114.081 -7.43785 7.64965 -1.88877e-005 1.59028e-015 -3.18055e-015 -0 2.38542e-015 -3.23025e-015 -7.95139e-016 -7.95139e-016 -3.18055e-015 -0 1.59028e-015 -3.18055e-015 -0 -0.0146299 -8.87027e-005 5.58488e-007 -7.95139e-016 -3.77691e-015 7.95139e-016 1.59028e-015 -3.18055e-015 -0 -0.018758 -0.00117463 6.14551e-005 -2.48698e-007 4.53254e-007 -1.13852e-007 1.59028e-015 -3.18055e-015 -0 -0.012274 -0.0032472 0.000674211 1.59028e-015 -4.14963e-015 7.95139e-016 1.59028e-015 -3.18055e-015 -0 2.38542e-015 -3.23025e-015 -7.95139e-016 -7.95139e-016 -3.18055e-015 -0 8.4991 -0.206843 -6.31328e-006 84.5183 -8.70562 67.4101 -50.2719 -32.4891 114.047 7.43391 7.64942 8.62707e-007 1.19271e-015 2.43511e-015 -0 -1.19507e-006 5.16654e-008 1.58984e-007 3.97569e-016 -6.01324e-015 -7.95139e-016 1.19271e-015 2.43511e-015 -0 0.0149874 -9.13228e-005 8.32297e-006 1.19271e-015 4.67144e-015 -1.59028e-015 1.19271e-015 2.43511e-015 -0 0.019001 -0.00119071 -7.02732e-005 -3.44867e-007 -4.94863e-007 -3.95952e-007 1.19271e-015 2.43511e-015 -0 0.0122837 -0.00325165 -0.000673407 -7.95139e-016 6.11263e-015 -0 1.19271e-015 2.43511e-015 -0 -1.19507e-006 5.16654e-008 1.58984e-007 3.97569e-016 -6.01324e-015 -7.95139e-016 -109.47 -30.3257 -93.8112 177.066 37.1458 175.878 -6.89352 13.8829 -4.62593 -4.19745e-006 1.26191e-005 5.81327e-007 109.443 -30.412 93.7812 -176.977 37.1825 -175.927 6.92219 13.2949 4.60917 1.15489e-005 3.18088e-006 -4.59795e-006 
0.000549759 5.35807 -4.99993 0 71.6204 -0 -0.323412 3.65073 -0.0494822 -0.64563 7.30167 -0.0785058 -0.645631 7.30168 -0.0785056 0.792573 -24.6915 0.473078 0.538363 -22.4226 0.216257 -8.00265 -0.194448 1.77112e-006 -78.963 -9.43868 -63.5196 49.406 -25.3943 -110.188 -7.00034 7.19967 -2.76437e-005 6.22446e-007 -5.65859e-007 -1.10158e-007 6.22446e-007 -5.65859e-007 -1.10158e-007 6.22446e-007 -5.65859e-007 -1.10158e-007 6.22446e-007 -5.65859e-007 -1.10158e-007 -0.0146259 -8.93697e-005 -4.31092e-006 6.22458e-007 -5.65845e-007 -1.10231e-007 6.22446e-007 -5.65859e-007 -1.10158e-007 -0.018772 -0.00117839 5.74647e-005 6.2246e-007 -5.65841e-007 -1.10258e-007 6.22446e-007 -5.65859e-007 -1.10158e-007 -0.0122619 -0.00324482 0.000671207 6.2245e-007 -5.65848e-007 -1.10237e-007 6.22446e-007 -5.65859e-007 -1.10158e-007 6.22446e-007 -5.65859e-007 -1.10158e-007 6.22446e-007 -5.65859e-007 -1.10158e-007 7.99916 -0.194702 -2.95667e-007 78.9592 -9.4435 63.5163 -49.4135 -25.3858 110.161 6.99663 7.19945 6.2136e-006 -9.81024e-007 -1.37587e-006 -5.58252e-007 -6.38337e-007 -5.49959e-007 1.07288e-007 3.42687e-007 8.25907e-007 6.6554e-007 -9.81024e-007 -1.37587e-006 -5.58252e-007 0.0149795 -9.29908e-005 -1.23782e-005 -1.19271e-015 2.28602e-015 -1.59028e-015 -9.81024e-007 -1.37587e-006 -5.58252e-007 0.0189863 -0.00119103 -5.77423e-005 3.97569e-015 2.31584e-014 -1.59028e-015 -9.81024e-007 -1.37587e-006 -5.58252e-007 0.0123019 -0.0032561 -0.000678756 -1.59028e-015 4.37326e-015 -3.18055e-015 -9.81024e-007 -1.37587e-006 -5.58252e-007 -6.38337e-007 -5.49959e-007 1.07288e-007 3.42687e-007 8.25907e-007 6.6554e-007 -102.542 -32.8713 -88.9214 176.794 45.1237 177.251 -6.65306 13.1511 -3.85886 2.89493e-006 8.45324e-006 -5.60648e-007 102.516 -32.9467 88.8902 -176.703 45.1556 -177.3 6.67255 12.6187 3.84555 7.44645e-006 6.94655e-006 3.35437e-007 
0.000546838 5.40548 -5.04568 0 72.0883 -0 -0.322966 3.53234 -0.0514752 -0.644589 7.06492 -0.0831943 -0.644589 7.06493 -0.0831942 1.39526 -25.2027 0.837236 0.987927 -22.4811 0.397495 -8.00266 -0.194446 2.21808e-006 -78.963 -9.43869 -63.5196 49.406 -25.3943 -110.188 -7.00033 7.19967 2.34518e-005 -6.22565e-007 5.65755e-007 1.09484e-007 2.37664e-006 1.13621e-007 -4.11598e-007 -6.22565e-007 5.65755e-007 1.09484e-007 -6.22565e-007 5.65755e-007 1.09484e-007 -0.0146012 -8.87516e-005 -4.41329e-006 -6.22577e-007 5.65741e-007 1.09556e-007 -6.22565e-007 5.65755e-007 1.09484e-007 -0.018766 -0.0011761 6.1804e-005 -6.2258e-007 5.65736e-007 1.09583e-007 -6.22565e-007 5.65755e-007 1.09484e-007 -0.0122981 -0.00325748 0.000670335 -6.22569e-007 5.65744e-007 1.09563e-007 -6.22565e-007 5.65755e-007 1.09484e-007 2.37664e-006 1.13621e-007 -4.11598e-007 -6.22565e-007 5.65755e-007 1.09484e-007 7.99916 -0.194682 -3.15621e-006 78.9592 -9.44352 63.5163 -49.4135 -25.3858 110.161 6.99662 7.19945 2.69883e-006 1.09973e-006 -1.2769e-006 -1.74287e-007 1.09973e-006 -1.2769e-006 -1.74287e-007 -1.2769e-006 -1.09973e-006 2.13194e-007 1.09973e-006 -1.2769e-006 -1.74287e-007 0.0149989 -9.13701e-005 -4.94928e-006 -1.27693e-006 -1.0997e-006 2.13339e-007 1.09973e-006 -1.2769e-006 -1.74287e-007 0.0189822 -0.00119166 -5.67631e-005 -1.61138e-006 -1.92641e-006 -4.56251e-007 1.09973e-006 -1.2769e-006 -1.74287e-007 0.012239 -0.00324084 -0.000676021 -1.27691e-006 -1.09971e-006 2.13349e-007 1.09973e-006 -1.2769e-006 -1.74287e-007 1.09973e-006 -1.2769e-006 -1.74287e-007 -1.2769e-006 -1.09973e-006 2.13194e-007 -103.132 -32.7037 -89.5272 176.794 45.1234 177.246 -6.28433 13.2794 -3.99836 -2.05986e-006 9.82621e-007 -4.23209e-006 103.107 -32.7773 89.4977 -176.703 45.1545 -177.294 6.30402 12.7641 3.98347 1.3318e-006 8.11634e-007 -3.87134e-006 
0.000545053 5.4533 -5.09109 0 72.5562 -0 -0.32257 3.41389 -0.0534732 -0.64366 6.82802 -0.0878857 -0.64366 6.82802 -0.0878857 2.00515 -25.7111 1.20953 1.43811 -22.5382 0.579394 -8.00265 -0.194512 -5.5853e-006 -78.963 -9.43868 -63.5196 49.406 -25.3943 -110.188 -7.00034 7.19966 2.81521e-006 2.37667e-006 1.14066e-007 -4.11474e-007 1.56394e-006 -2.61208e-006 -1.2152e-006 8.31772e-007 -1.29642e-006 3.23701e-007 2.37667e-006 1.14066e-007 -4.11474e-007 -0.0146112 -9.22966e-005 -3.64156e-006 6.22696e-007 -5.65636e-007 -1.0888e-007 2.37667e-006 1.14066e-007 -4.11474e-007 -0.0187577 -0.00117935 6.48067e-005 6.22698e-007 -5.65632e-007 -1.08906e-007 2.37667e-006 1.14066e-007 -4.11474e-007 -0.0122478 -0.00324373 0.000674133 6.22687e-007 -5.6564e-007 -1.08886e-007 2.37667e-006 1.14066e-007 -4.11474e-007 1.56394e-006 -2.61208e-006 -1.2152e-006 8.31772e-007 -1.29642e-006 3.23701e-007 7.99916 -0.194739 5.64641e-006 78.9592 -9.44348 63.5163 -49.4135 -25.3859 110.161 6.99661 7.19944 -1.79915e-005 -1.27714e-006 -1.09954e-006 2.11808e-007 -1.09954e-006 1.27714e-006 1.75481e-007 -1.09954e-006 1.27714e-006 1.75481e-007 -1.27714e-006 -1.09954e-006 2.11808e-007 0.0150005 -9.1735e-005 -4.35147e-006 -1.09951e-006 1.27716e-006 1.75315e-007 -1.27714e-006 -1.09954e-006 2.11808e-007 0.0190022 -0.0011935 -6.49511e-005 -1.0995e-006 1.27716e-006 1.75281e-007 -1.27714e-006 -1.09954e-006 2.11808e-007 0.0122555 -0.00324323 -0.000671165 -1.09952e-006 1.27714e-006 1.75375e-007 -1.27714e-006 -1.09954e-006 2.11808e-007 -1.09954e-006 1.27714e-006 1.75481e-007 -1.09954e-006 1.27714e-006 1.75481e-007 -103.72 -32.5309 -90.1303 176.794 45.1233 177.241 -5.91495 13.4069 -4.13892 -3.32228e-006 -6.71001e-007 -6.83412e-006 103.696 -32.6027 90.1025 -176.704 45.1533 -177.289 5.9348 12.9089 4.12261 6.357e-007 -8.15792e-007 1.29691e-006 
0.000541136 5.50153 -5.13616 0 73.0245 -0 -0.322198 3.29535 -0.0554715 -0.642792 6.59092 -0.0925752 -0.642792 6.5909 -0.0925756 2.62235 -26.2169 1.59007 1.8889 -22.5941 0.76194 -8.00266 -0.194443 3.62453e-006 -78.963 -9.43869 -63.5196 49.406 -25.3943 -110.188 -7.00033 7.19967 6.22609e-006 3.97569e-016 5.24295e-015 -0 -6.228e-007 5.65546e-007 1.0813e-007 -5.1684e-015 3.42904e-015 -1.19271e-014 3.97569e-016 5.24295e-015 -0 -0.0145924 -8.7007e-005 2.42134e-006 -3.97569e-016 2.73329e-016 -7.95139e-016 3.97569e-016 5.24295e-015 -0 -0.0187604 -0.00117561 6.13454e-005 -3.97569e-016 1.49089e-015 -7.95139e-016 3.97569e-016 5.24295e-015 -0 -0.0122783 -0.00324852 0.000672783 3.97569e-016 4.19933e-015 1.59028e-015 3.97569e-016 5.24295e-015 -0 -6.228e-007 5.65546e-007 1.0813e-007 -5.1684e-015 3.42904e-015 -1.19271e-014 7.99915 -0.194685 -4.34783e-006 78.9592 -9.44348 63.5163 -49.4135 -25.3858 110.161 6.99662 7.19946 -2.51278e-006 2.92638e-006 -8.16706e-007 -4.75433e-007 5.49673e-007 -6.38684e-007 -8.83376e-008 1.18836e-006 -8.90111e-008 -1.93548e-007 2.92638e-006 -8.16706e-007 -4.75433e-007 0.014986 -9.18134e-005 -5.62476e-006 1.50265e-006 7.39375e-007 4.84698e-007 2.92638e-006 -8.16706e-007 -4.75433e-007 0.0189862 -0.00119037 -5.6762e-005 1.18835e-006 -8.90425e-008 -1.93545e-007 2.92638e-006 -8.16706e-007 -4.75433e-007 0.0122477 -0.00324286 -0.000677341 1.18835e-006 -8.90243e-008 -1.93572e-007 2.92638e-006 -8.16706e-007 -4.75433e-007 5.49673e-007 -6.38684e-007 -8.83376e-008 1.18836e-006 -8.90111e-008 -1.93548e-007 -104.305 -32.3529 -90.7307 176.794 45.1231 177.235 -5.545 13.5337 -4.28047 -1.22998e-015 9.54166e-015 3.00662e-015 104.282 -32.4229 90.7044 -176.704 45.1522 -177.283 5.56487 13.0527 4.26286 2.53463e-006 1.44097e-005 -3.16077e-006 
0.000541204 5.55017 -5.18087 0 73.4929 -0 -0.321787 3.17671 -0.0574638 -0.641861 6.35371 -0.0972513 -0.641861 6.3537 -0.0972514 3.24699 -26.7195 1.97896 2.34027 -22.6486 0.945114 -8.00266 -0.194481 -2.43942e-006 -78.963 -9.4387 -63.5196 49.4059 -25.3943 -110.188 -7.00033 7.19966 1.31544e-006 -6.22917e-007 5.6544e-007 1.07452e-007 5.96354e-016 -9.19379e-016 -0 -6.22917e-007 5.6544e-007 1.07452e-007 -6.22917e-007 5.6544e-007 1.07452e-007 -0.0146019 -8.71048e-005 3.56011e-006 -6.22929e-007 5.65426e-007 1.07525e-007 -6.22917e-007 5.6544e-007 1.07452e-007 -0.018762 -0.00117636 5.67451e-005 -6.22932e-007 5.65422e-007 1.07551e-007 -6.22917e-007 5.6544e-007 1.07452e-007 -0.0122595 -0.00324623 0.000672214 -6.22921e-007 5.65429e-007 1.07531e-007 -6.22917e-007 5.6544e-007 1.07452e-007 5.96354e-016 -9.19379e-016 -0 -6.22917e-007 5.6544e-007 1.07452e-007 7.99916 -0.19472 2.2805e-006 78.9592 -9.44349 63.5163 -49.4135 -25.3859 110.161 6.99662 7.19946 3.23145e-006 -1.18837e-006 8.92225e-008 1.93451e-007 -1.82717e-006 -4.60353e-007 2.97966e-007 -1.18837e-006 8.92225e-008 1.93451e-007 -1.18837e-006 8.92225e-008 1.93451e-007 0.0149938 -9.18044e-005 -5.30815e-006 -1.18837e-006 8.92477e-008 1.9344e-007 -1.18837e-006 8.92225e-008 1.93451e-007 0.0189855 -0.00118917 -6.60786e-005 -1.18837e-006 8.92538e-008 1.93449e-007 -1.18837e-006 8.92225e-008 1.93451e-007 0.0122677 -0.00324646 -0.000668549 -1.18837e-006 8.92358e-008 1.93475e-007 -1.18837e-006 8.92225e-008 1.93451e-007 -1.82717e-006 -4.60353e-007 2.97966e-007 -1.18837e-006 8.92225e-008 1.93451e-007 -104.887 -32.1699 -91.3281 176.794 45.123 177.23 -5.1744 13.6597 -4.42302 -1.89529e-006 -2.4839e-006 -3.8753e-006 104.865 -32.238 91.3034 -176.704 45.1512 -177.277 5.19426 13.1959 4.40426 5.62734e-006 8.57437e-006 7.7641e-006 
